# xmcd
#
# Track frame offsets:
#	150
#	17650
#	35077
#	51477
#	70420
#	86982
#	101757
#	123130
#	137500
#	157017
#	170025
#	187062
#	204022
#	220305
#
# Disc length: 3128 seconds
#
# Revision: 0
# Processed by: cddbd v1.5.1PL2 Copyright (c) Steve Scherf et al.
# Submitted via: dBpowerAMP V4.0
#
DISCID=d10c360e
DTITLE=Kenny Rogers - The Essential of
DYEAR=1900
DGENRE=
TTITLE0=Lady
TTITLE1=We've Got Tonight (With Sheena Easton)
TTITLE2=You Decorated My Life
TTITLE3=She Believes in Me
TTITLE4=Don't Fall in Love With a Dreamer (With Kim Carnes)
TTITLE5=Share Your Love With Me
TTITLE6=Through The Years
TTITLE7=Love The World Away
TTITLE8=Sweet Music Man
TTITLE9=You Are So Beautiful
TTITLE10=Love Lifted Me
TTITLE11=Desperado
TTITLE12=Lucille
TTITLE13=Daytime Friends
EXTD=The Essential of Kenny Rogers
EXTT0=
EXTT1=
EXTT2=
EXTT3=
EXTT4=
EXTT5=
EXTT6=
EXTT7=
EXTT8=
EXTT9=
EXTT10=
EXTT11=
EXTT12=
EXTT13=
PLAYORDER=
